<?xml version="1.0" encoding="UTF-8" standalone="no"?>
<svg
   xmlns:dc="http://purl.org/dc/elements/1.1/"
   xmlns:cc="http://creativecommons.org/ns#"
   xmlns:rdf="http://www.w3.org/1999/02/22-rdf-syntax-ns#"
   xmlns:svg="http://www.w3.org/2000/svg"
   xmlns="http://www.w3.org/2000/svg"
   version="1.1"
   id="svg2"
   xml:space="preserve"
   width="209.408"
   height="182.064"
   viewBox="0 0 209.408 182.064"><metadata
     id="metadata8"><rdf:RDF><cc:Work
         rdf:about=""><dc:format>image/svg+xml</dc:format><dc:type
           rdf:resource="http://purl.org/dc/dcmitype/StillImage" /></cc:Work></rdf:RDF></metadata><defs
     id="defs6"><clipPath
       clipPathUnits="userSpaceOnUse"
       id="clipPath38"><path
         d="M -16323,-16323 V 16323 H 16323 V -16323 Z M -1.98447,0 7.28653,65.96635 45.33344,75.72441 4.25183,0 Z"
         clip-rule="evenodd"
         id="path36" /></clipPath><clipPath
       clipPathUnits="userSpaceOnUse"
       id="clipPath62"><path
         d="M -16323,-16323 V 16323 H 16323 V -16323 Z M 0,-18.42525 c -7.51782,2.14814 -11.63696,3.89217 -18.41182,7.79521 l -10.25174,-13.42193 c 8.21011,-5.0957 13.36202,-7.37081 22.65865,-10.00606 z"
         clip-rule="evenodd"
         id="path60" /></clipPath></defs><g
     id="g10"
     transform="matrix(1.3333333,0,0,-1.3333333,0,182.064)"><g
       id="g12"
       transform="translate(78.528,68.274)"><g
         id="g14"><g
           id="g16"><g
             id="g18" /><g
             id="g20" /><g
             id="g22" /><g
             id="g24" /><g
             id="g26" /><g
             id="g28" /><g
             id="g30" /><g
             id="g32"><g
               id="g34"
               clip-path="url(#clipPath38)"><g
                 id="g40"><path
                   d="m 8.5188,23.40495 c -25.85272,9.40975 -50.62386,6.55902 -55.32872,-6.36734 -4.70487,-12.92636 12.43837,-31.03283 38.29112,-40.44256 25.85272,-9.40975 50.62386,-6.55902 55.32872,6.36734 C 51.51479,-4.11125 34.37155,13.99522 8.5188,23.40495 Z"
                   style="fill:none;stroke:#83b818;stroke-width:9.96277;stroke-linecap:butt;stroke-linejoin:miter;stroke-miterlimit:10;stroke-dasharray:none;stroke-opacity:1"
                   id="path42" /></g><g
                 id="g44"><path
                   d="m 9.2003,25.27736 c -25.85272,9.40973 -50.92898,5.72074 -56.01022,-8.23975 -5.08125,-13.96048 11.75687,-32.90522 37.60962,-42.31497 25.85272,-9.40973 50.92898,-5.72074 56.01022,8.23975 C 51.89117,-3.07713 35.05305,15.86761 9.2003,25.27736 Z"
                   style="fill:none;stroke:#83b818;stroke-width:9.96277;stroke-linecap:butt;stroke-linejoin:miter;stroke-miterlimit:10;stroke-dasharray:none;stroke-opacity:1"
                   id="path46" /></g></g></g><g
             id="g48"><path
               d="M 11.95532,0 C 11.95532,6.60281 6.60281,11.95532 0,11.95532 -6.60281,11.95532 -11.95532,6.60281 -11.95532,0 c 0,-6.60281 5.35251,-11.95532 11.95532,-11.95532 6.60281,0 11.95532,5.35251 11.95532,11.95532 z"
               style="fill:#83b818;fill-opacity:1;fill-rule:nonzero;stroke:none"
               id="path50" /></g><g
             id="g52"><path
               d="m 0,0 11.56738,65.60379 26.70076,0.67877 z"
               style="fill:#83b818;fill-opacity:1;fill-rule:nonzero;stroke:none"
               id="path54" /></g><g
             id="g56"><g
               id="g58"
               clip-path="url(#clipPath62)"><g
                 id="g64"><path
                   d="m 0,0 -11.56738,-65.60379 -26.70076,-0.67877 z"
                   style="fill:#83b818;fill-opacity:1;fill-rule:nonzero;stroke:none"
                   id="path66" /></g></g></g><g
             id="g68"><path
               d="M 76.53632,0 38.26814,66.28256 H -38.26814 L -76.53632,0 -38.26814,-66.28256 h 76.53628 z"
               style="fill:none;stroke:#ffffff;stroke-width:3.9851;stroke-linecap:butt;stroke-linejoin:miter;stroke-miterlimit:10;stroke-dasharray:none;stroke-opacity:1"
               id="path70" /></g></g></g></g></g></svg>
