<?xml version="1.0" encoding="UTF-8" standalone="no"?>
<!-- Created with Inkscape (http://www.inkscape.org/) -->

<svg
   width="170.89925mm"
   height="168.55531mm"
   viewBox="0 0 170.89925 168.55531"
   version="1.1"
   id="svg5"
   xml:space="preserve"
   xmlns="http://www.w3.org/2000/svg"
   xmlns:svg="http://www.w3.org/2000/svg"><defs
     id="defs2" /><g
     id="layer1"
     transform="translate(-235.77947,-54.638094)"><path
       style="fill:#ffffff;fill-opacity:1;stroke-width:0.20531"
       d="m 293.86482,219.52075 c 0,-3.67265 0,-3.67265 4.36284,-3.76878 3.76645,-0.083 4.52542,-0.15519 5.55214,-0.52817 1.92518,-0.69935 3.15284,-1.46467 4.33119,-2.70006 0.60877,-0.63823 1.39505,-1.73134 1.7473,-2.42913 1.28485,-2.54529 1.24622,-1.77436 1.24955,-24.93493 l 0.003,-21.09564 h 10.25837 10.25837 l 0.0585,21.60891 c 0.0585,21.60891 0.0585,21.60891 0.53639,22.94343 0.26285,0.73398 0.75932,1.77615 1.10326,2.31594 0.80341,1.26089 2.54963,2.81389 4.0829,3.63111 1.82439,0.97239 3.44427,1.23116 7.73241,1.23524 3.74692,0.004 3.74692,0.004 3.74692,3.69915 0,3.69559 0,3.69559 -27.51158,3.69559 -27.51157,0 -27.51157,0 -27.51157,-3.67266 z m 43.32046,-21.10539 c 0,-4.32113 0.0593,-5.6375 0.25664,-5.69315 2.65365,-0.74849 8.05823,-2.65779 10.13341,-3.57987 2.98046,-1.32433 7.66093,-3.89118 7.82234,-4.2899 0.057,-0.14076 -1.9073,-6.07679 -4.36507,-13.19119 l -4.46867,-12.93527 -25.16903,3.8e-4 -25.16902,3.8e-4 -4.41417,12.76688 c -2.42779,7.02178 -4.44077,12.91224 -4.47328,13.08991 -0.0396,0.21654 0.53571,0.67185 1.74514,1.38107 4.30644,2.52533 8.93834,4.54548 13.60959,5.93565 1.4115,0.42007 2.68186,0.85355 2.82301,0.96329 0.19378,0.15066 0.25664,1.52594 0.25664,5.61512 0,5.41558 0,5.41558 -0.7751,5.41558 -0.42631,0 -2.11242,-0.23411 -3.74691,-0.52024 -10.60036,-1.85566 -20.19403,-4.95256 -29.0001,-9.36143 -3.40175,-1.70313 -5.26345,-2.77806 -8.75688,-5.05615 -10.47697,-6.83211 -17.20976,-13.94165 -21.72378,-22.9394 -3.49463,-6.96582 -5.24588,-13.5542 -5.83648,-21.95747 -0.22555,-3.20921 -0.21326,-4.12746 0.10181,-7.60144 0.72013,-7.94023 2.37783,-13.98059 5.60858,-20.43667 1.75571,-3.50846 3.65633,-6.48154 6.01504,-9.40914 5.14331,-6.3838 12.90597,-12.547121 22.08187,-17.532363 8.25153,-4.483032 18.11104,-8.015703 27.92219,-10.004544 4.70182,-0.953116 6.67259,-1.231619 6.67259,-0.942949 0,0.513783 -4.08575,12.087429 -4.36609,12.367774 -0.16303,0.163027 -1.39541,0.738908 -2.73863,1.279738 -7.2466,2.917763 -12.74289,6.51305 -18.06096,11.814224 -5.37204,5.35497 -9.05512,11.08353 -11.77425,18.31333 -2.57099,6.83593 -3.69931,13.59801 -3.43712,20.59896 0.3589,9.58353 2.90883,18.28731 7.64748,26.10348 1.30027,2.14473 4.50619,6.54085 4.76998,6.54085 0.12915,0 22.86654,-65.48931 33.3957,-96.18787 1.18503,-3.455035 1.33761,-4.076893 1.33498,-5.440722 -0.008,-4.134014 -1.70253,-7.479188 -4.80413,-9.483851 -0.67032,-0.433248 -1.82595,-0.983028 -2.56808,-1.221734 -1.13604,-0.365409 -2.02273,-0.450094 -5.60952,-0.535755 -4.26018,-0.101742 -4.26018,-0.101742 -4.26018,-3.738902 0,-3.637159 0,-3.637159 5.26871,-3.772731 6.77573,-0.174351 45.12243,-0.175065 47.75266,-8.9e-4 2.00178,0.132558 2.00178,0.132558 2.00178,3.773908 0,3.641349 0,3.641349 -4.26019,3.737328 -3.63105,0.08181 -4.46182,0.161324 -5.62549,0.53845 -1.6786,0.544004 -3.59047,1.794952 -4.69367,3.071095 -1.6736,1.935951 -2.6557,4.774141 -2.66315,7.696324 -0.003,1.320763 0.76083,3.610958 13.87292,41.57533 7.63207,22.09767 15.4159,44.63526 17.29739,50.08354 1.8815,5.44828 3.48884,9.90608 3.57188,9.90622 0.24693,4.1e-4 1.92065,-2.1919 3.68327,-4.82453 2.0622,-3.08006 4.58771,-8.19847 5.79038,-11.73528 1.91088,-5.61947 2.76817,-10.2803 2.93958,-15.98161 0.16522,-5.49538 -0.28521,-9.74357 -1.5789,-14.89123 -0.92684,-3.68799 -2.14783,-6.99194 -3.90517,-10.56724 -2.78384,-5.66371 -5.78429,-9.79567 -10.28871,-14.16874 -2.74073,-2.66081 -5.56778,-4.888186 -8.52957,-6.72027 -2.42223,-1.498334 -6.60955,-3.579569 -9.2035,-4.574449 -1.12921,-0.433094 -2.20991,-0.932513 -2.40155,-1.109819 -0.19165,-0.177306 -1.27722,-3.016306 -2.4124,-6.308887 -1.13517,-3.292582 -2.06395,-6.072343 -2.06395,-6.177249 0,-0.382875 6.63105,0.832722 12.01065,2.201781 8.14139,2.071905 16.68987,5.457005 23.81599,9.430862 3.68815,2.056681 8.5109,5.304991 11.78972,7.940841 3.19238,2.56636 7.12541,6.40817 9.12404,8.91245 4.72487,5.92022 8.1362,12.8282 10.09166,20.43569 1.22467,4.76449 1.42477,6.66032 1.42943,13.54316 0.003,4.91514 -0.0726,6.69844 -0.3761,8.82834 -1.62035,11.37253 -6.82394,21.81043 -14.9002,29.88836 -4.2502,4.25108 -9.28946,8.12537 -15.00279,11.53448 -5.63994,3.36531 -13.54055,6.90525 -20.01775,8.96912 -5.33627,1.70033 -12.35018,3.32665 -17.19473,3.98696 -2.00178,0.27285 -2.00178,0.27285 -2.00178,-5.34792 z m 4.72214,-53.10568 c 0,-0.17225 -10.07148,-29.16264 -10.16318,-29.25434 -0.0563,-0.0563 -0.10234,5.31785 -0.10234,11.94253 v 12.04487 h -10.26387 -10.26387 l -0.053,-12.05113 -0.053,-12.05112 -5.0301,14.54431 c -2.76656,7.99937 -5.0609,14.62345 -5.09854,14.72016 -0.0377,0.0969 9.15973,0.17585 20.4797,0.17585 11.30148,0 20.54814,-0.032 20.54814,-0.0711 z"
       id="path1221" /></g></svg>
