<?xml version="1.0" encoding="UTF-8" standalone="no"?>
<svg
   width="87.843658pt"
   height="35.582275pt"
   viewBox="0 0 87.84366 35.582276"
   version="1.1"
   id="svg39870"
   sodipodi:docname="department-of-physics.pdf"
   inkscape:export-filename="department-of-physics.svg"
   inkscape:export-xdpi="96"
   inkscape:export-ydpi="96"
   xmlns:inkscape="http://www.inkscape.org/namespaces/inkscape"
   xmlns:sodipodi="http://sodipodi.sourceforge.net/DTD/sodipodi-0.dtd"
   xmlns="http://www.w3.org/2000/svg"
   xmlns:svg="http://www.w3.org/2000/svg">
  <sodipodi:namedview
     id="namedview39872"
     pagecolor="#ffffff"
     bordercolor="#000000"
     borderopacity="0.25"
     inkscape:showpageshadow="2"
     inkscape:pageopacity="0.0"
     inkscape:pagecheckerboard="0"
     inkscape:deskcolor="#d1d1d1"
     inkscape:document-units="pt"
     showgrid="false" />
  <defs
     id="defs39808" />
  <path
     fill-rule="nonzero"
     fill="#83b818"
     fill-opacity="1"
     d="m 41.406155,5.0002459 h 5.429688 L 48.136624,2.4593126e-4 h -6.730469 c -5.371094,0 -8.664062,3.77734396874 -8.664062,8.72265596874 V 35.582277 h 4.964843 V 25.383058 h 3.882813 L 42.85928,20.418215 H 37.706936 V 8.7229019 c 0,-2.398437 1.164063,-3.722656 3.699219,-3.722656 z m 0,0"
     id="path39852" />
  <path
     fill-rule="nonzero"
     fill="#9c9b9b"
     fill-opacity="1"
     d="m 87.843655,35.582277 -0.0039,-16.753906 c 0,-5.367187 -3.746094,-8.664063 -8.660156,-8.664063 h -6.484376 c -1.339843,0 -2.585937,0.253907 -3.699218,0.71875 V 2.4593126e-4 h -4.96485 V 35.582277 h 4.964844 V 18.828371 c 0,-2.53125 1.320312,-3.699219 3.703125,-3.699219 h 6.480469 c 2.382812,0 3.699218,1.167969 3.699218,3.699219 v 16.753906 z m 0,0"
     id="path39854" />
  <path
     fill-rule="nonzero"
     fill="#9c9b9b"
     fill-opacity="1"
     d="M 51.425686,0.01196473 H 50.460843 L 49.206936,5.0119649 h 2.21875 c 2.535157,0 3.703125,1.324219 3.703125,3.722656 v 7.9726561 c 0,2.398438 -1.167968,3.722657 -3.703125,3.722657 h -6.242187 l -1.285156,5 h 7.527343 c 5.371094,0 8.664063,-3.777344 8.664063,-8.722657 V 8.7346209 c 0,-4.949219 -3.292969,-8.72265617 -8.664063,-8.72265617 z m 0,0"
     id="path39856" />
  <path
     fill-rule="nonzero"
     fill="#9c9b9b"
     fill-opacity="1"
     d="M 22.808499,4.3205579 15.851467,12.49634 c 0.332032,0.195312 0.640626,0.425781 0.910157,0.695312 l 6.867187,-8.0703121 c 0.46875,0.277344 1.015625,0.394531 1.5625,0.324218 1.34375,-0.167968 2.300782,-1.390624 2.136719,-2.726562 -0.08203,-0.648438 -0.414063,-1.226562 -0.929687,-1.628906 -0.519532,-0.40234397 -1.160157,-0.57812497 -1.8125,-0.49609397 -0.648438,0.082031 -1.230469,0.41015597 -1.632813,0.92578097 -0.40625,0.515625 -0.582031,1.15625 -0.5,1.804688 0.03906,0.355469 0.164063,0.695312 0.355469,0.996093 z m 0,0"
     id="path39858" />
  <path
     fill-rule="nonzero"
     fill="#9c9b9b"
     fill-opacity="1"
     d="m 11.538967,6.8049339 0.929688,5.2148431 c 0.355469,-0.08984 0.726562,-0.140625 1.109375,-0.140625 0.0078,0 0.01953,0 0.02734,0 L 12.663967,6.6213399 c 1.511719,-0.519532 2.480469,-2.039063 2.28125,-3.636719 -0.230468,-1.863281 -1.945312,-3.19531297 -3.8125,-2.95703117 -1.8710927,0.2343752 -3.2070307,1.93750017 -2.9726557,3.80078117 0.210938,1.710937 1.671875,2.972656 3.3789057,2.976563 z m 0,0"
     id="path39860" />
  <path
     fill-rule="nonzero"
     fill="#9c9b9b"
     fill-opacity="1"
     d="M 9.7733433,29.18384 12.679593,20.804934 C 12.29678,20.726808 11.937405,20.597902 11.597561,20.43384 l -2.9062497,8.386718 c -0.320312,-0.05078 -0.640625,-0.05859 -0.957031,-0.01562 -1.871094,0.230468 -3.203125,1.9375 -2.972656,3.796874 0.214843,1.71875 1.691406,2.980469 3.390625,2.980469 0.140625,0 0.28125,-0.0078 0.425781,-0.02734 1.8710937,-0.230469 3.2031247,-1.9375 2.9726557,-3.796876 -0.136719,-1.109374 -0.796875,-2.054687 -1.7773427,-2.574218 z m 0,0"
     id="path39862" />
  <path
     fill-rule="nonzero"
     fill="#9c9b9b"
     fill-opacity="1"
     d="m 27.433499,22.008058 c -0.113282,-0.902343 -0.570313,-1.707031 -1.292969,-2.265624 -0.71875,-0.554688 -1.613281,-0.800782 -2.519531,-0.6875 -0.863282,0.109374 -1.652344,0.542968 -2.207032,1.203124 l -3.675781,-2.128906 c -0.148437,0.355469 -0.34375,0.683594 -0.574219,0.984375 l 3.675782,2.132813 c -0.195313,0.515625 -0.261719,1.066406 -0.191406,1.609375 0.230468,1.859375 1.9375,3.1875 3.8125,2.953125 0.90625,-0.113282 1.714843,-0.570313 2.277343,-1.289063 0.5625,-0.714843 0.808594,-1.609375 0.695313,-2.511719 z m 0,0"
     id="path39864" />
  <path
     fill-rule="nonzero"
     fill="#9c9b9b"
     fill-opacity="1"
     d="m 9.0858433,16.664308 c -0.00781,-0.09375 -0.015626,-0.183593 -0.015626,-0.277343 0,-0.296875 0.03125,-0.582031 0.085938,-0.863281 l -4.261719,-0.296876 c -0.167969,-1.339843 -1.398437,-2.292968 -2.742187,-2.121093 -0.648438,0.08203 -1.23046903,0.410156 -1.63281303,0.925781 -0.402343,0.515625 -0.582031,1.15625 -0.4999998,1.804688 0.1640628,1.335937 1.39453083,2.289062 2.73828083,2.121093 0.929688,-0.117187 1.695313,-0.734375 2.007813,-1.597656 z m 0,0"
     id="path39866" />
  <path
     fill-rule="nonzero"
     fill="#83b818"
     fill-opacity="1"
     d="m 18.089749,16.386965 c 0,2.492187 -2.019532,4.507812 -4.511719,4.507812 -2.488281,0 -4.5078127,-2.015625 -4.5078127,-4.507812 0,-2.488281 2.0195317,-4.507813 4.5078127,-4.507813 2.492187,0 4.511719,2.019532 4.511719,4.507813 z m 0,0"
     id="path39868" />
</svg>
