<?xml version="1.0" encoding="UTF-8" standalone="no"?>
<!-- Created with Inkscape (http://www.inkscape.org/) -->

<svg
   version="1.1"
   id="svg26708"
   width="94.055695"
   height="84.577217"
   viewBox="0 0 94.055695 84.577217"
   sodipodi:docname="logotp4neu.png"
   inkscape:export-filename="logotp4neu.svg"
   inkscape:export-xdpi="96"
   inkscape:export-ydpi="96"
   xmlns:inkscape="http://www.inkscape.org/namespaces/inkscape"
   xmlns:sodipodi="http://sodipodi.sourceforge.net/DTD/sodipodi-0.dtd"
   xmlns:xlink="http://www.w3.org/1999/xlink"
   xmlns="http://www.w3.org/2000/svg"
   xmlns:svg="http://www.w3.org/2000/svg">
  <defs
     id="defs26712">
    <linearGradient
       inkscape:collect="always"
       id="linearGradient26748">
      <stop
         style="stop-color:#002a57;stop-opacity:1;"
         offset="0.0990397"
         id="stop26744" />
      <stop
         style="stop-color:#5bb900;stop-opacity:1;"
         offset="1"
         id="stop26746" />
    </linearGradient>
    <linearGradient
       inkscape:collect="always"
       id="linearGradient26740">
      <stop
         style="stop-color:#002a57;stop-opacity:1;"
         offset="0.09980831"
         id="stop26736" />
      <stop
         style="stop-color:#5bb900;stop-opacity:1;"
         offset="1"
         id="stop26738" />
    </linearGradient>
    <linearGradient
       inkscape:collect="always"
       xlink:href="#linearGradient26740"
       id="linearGradient26742"
       x1="5.8482361"
       y1="41.802532"
       x2="87.388474"
       y2="41.802532"
       gradientUnits="userSpaceOnUse" />
    <linearGradient
       inkscape:collect="always"
       xlink:href="#linearGradient26748"
       id="linearGradient26750"
       x1="5.7255111"
       y1="41.802532"
       x2="87.51342"
       y2="41.802532"
       gradientUnits="userSpaceOnUse"
       spreadMethod="reflect" />
  </defs>
  <sodipodi:namedview
     id="namedview26710"
     pagecolor="#ffffff"
     bordercolor="#000000"
     borderopacity="0.25"
     inkscape:showpageshadow="2"
     inkscape:pageopacity="0.0"
     inkscape:pagecheckerboard="0"
     inkscape:deskcolor="#d1d1d1"
     showgrid="false" />
  <g
     inkscape:groupmode="layer"
     inkscape:label="Image"
     id="g26714">
    <path
       style="fill:#002a57;fill-opacity:1;stroke:#002a57;stroke-width:0.243038;stroke-opacity:1"
       d="m 86.91774,65.073419 c -0.0806,-0.300759 -0.148041,-1.003776 -0.149867,-1.562258 -0.0033,-1.015425 -0.0033,-1.015425 -1.400785,-1.17434 -2.801725,-0.318601 -2.936436,-0.727004 -0.324689,-0.98436 1.669199,-0.164478 1.669199,-0.164478 1.767362,-1.706102 0.159209,-2.500326 0.663226,-2.515251 0.863074,-0.02555 0.125378,1.561951 0.125378,1.561951 1.602974,1.71639 2.478895,0.259095 2.370748,0.673059 -0.263152,1.007273 -1.275949,0.161907 -1.275949,0.161907 -1.279267,1.172012 -0.0039,1.175781 -0.216811,2.103776 -0.482758,2.103776 -0.102492,0 -0.252293,-0.246076 -0.332892,-0.546836 z m -29.164556,-19.2 c -0.0806,-0.30076 -0.148042,-1.001382 -0.149867,-1.55694 -0.0033,-1.010105 -0.0033,-1.010105 -1.279267,-1.172012 -2.635424,-0.334408 -2.741903,-0.748193 -0.259309,-1.007675 1.481438,-0.154842 1.481438,-0.154842 1.584245,-1.576145 0.167781,-2.319532 0.644668,-2.330902 0.854181,-0.02037 0.131442,1.449568 0.131442,1.449568 1.49768,1.605693 0.751433,0.08587 1.524587,0.254942 1.718123,0.375718 0.394432,0.246146 0.04351,0.355202 -1.992388,0.61917 -1.11485,0.144547 -1.154431,0.177292 -1.154431,0.95504 0,1.082163 -0.260857,2.32435 -0.48811,2.32435 -0.101371,0 -0.250259,-0.246076 -0.330857,-0.546836 z"
       id="path26730"
       sodipodi:nodetypes="sssssssscsssscsssssssssss"
       sodipodi:insensitive="true" />
    <path
       style="fill:#69c300;fill-opacity:1;stroke:#69c300;stroke-width:0.243038;stroke-opacity:1"
       d="m 48.34967,82.587873 c -0.379948,-1.397381 -0.696481,-3.892977 -0.706275,-5.568406 -0.0079,-1.360283 -0.0079,-1.360283 -2.985168,-1.636192 -4.624329,-0.428554 -6.466832,-1.163049 -4.348457,-1.733468 1.347118,-0.362742 4.260599,-0.721955 5.928204,-0.730908 1.397468,-0.0075 1.397468,-0.0075 1.397468,-1.448147 0,-1.993409 0.45408,-5.067585 0.899669,-6.090879 0.371563,-0.853289 0.371563,-0.853289 0.723934,-0.02631 0.32187,0.755386 0.569091,2.365294 0.946001,6.160364 0.13879,1.397468 0.13879,1.397468 1.160589,1.397468 1.440127,0 4.98791,0.454056 5.943154,0.760621 1.829286,0.587076 0.234252,1.256747 -3.979737,1.670889 -1.594269,0.156682 -2.928951,0.314598 -2.965956,0.350927 -0.037,0.03633 -0.173592,1.257041 -0.303525,2.712693 -0.410386,4.597564 -1.122947,6.340044 -1.709901,4.181349 z M 68.957587,14.339241 c -0.07785,-0.200507 -0.211106,-0.884051 -0.296108,-1.518988 -0.154555,-1.15443 -0.154555,-1.15443 -1.172573,-1.171512 -0.559911,-0.0094 -1.230898,-0.100388 -1.491082,-0.202207 -0.438127,-0.171454 -0.429154,-0.196868 0.121519,-0.344156 0.32702,-0.08747 0.996837,-0.160525 1.488484,-0.16235 0.893905,-0.0033 0.893905,-0.0033 1.061317,-1.3432395 0.228879,-1.8318957 0.537734,-1.884186 0.736792,-0.124742 0.165708,1.4646625 0.165708,1.4646625 1.288747,1.4683845 1.353773,0.0045 2.061152,0.337421 1.204341,0.566836 -0.312058,0.08355 -0.977506,0.153412 -1.478772,0.155237 -0.859586,0.0031 -0.913028,0.04822 -0.940146,0.793192 -0.04371,1.200654 -0.353737,2.318219 -0.522519,1.883545 z M 37.45064,13.192144 C 37.31703,12.686845 37.132984,11.427986 37.041653,10.394679 36.853209,8.2626337 37.071933,8.417209 33.903797,8.1771263 33.101772,8.1163486 32.117468,7.9391309 31.716455,7.7833093 31.086763,7.5386296 31.043816,7.4683914 31.401502,7.2682151 31.629292,7.1407349 32.955827,6.9090232 34.349359,6.7533 c 2.533692,-0.2831332 2.533692,-0.2831332 2.696022,-2.1207482 0.186838,-2.1150434 0.548972,-3.66039988 0.857771,-3.66039988 0.298419,0 0.739149,2.20379188 0.743606,3.71829178 0.0019,0.6951926 0.08407,1.3875925 0.182279,1.5386661 0.09821,0.1510737 0.993449,0.3557734 1.989429,0.4548882 0.995979,0.099115 2.2537,0.3156395 2.794936,0.4811661 0.984066,0.3009571 0.984066,0.3009571 0.254952,0.5984363 -0.401013,0.1636134 -1.549367,0.3577288 -2.551899,0.4313676 -2.52201,0.1852484 -2.673418,0.2921574 -2.673418,1.887697 0,1.489134 -0.418341,3.699951 -0.737442,3.897166 -0.116612,0.07207 -0.321343,-0.282388 -0.454955,-0.787687 z"
       id="path26732"
       sodipodi:nodetypes="scssssssssssssssssssscsssscsssssssssscssssssss"
       sodipodi:insensitive="true" />
    <path
       style="fill:url(#linearGradient26750);fill-opacity:1;fill-rule:nonzero;stroke:url(#linearGradient26742);stroke-width:0.243038"
       d="m 14.582278,62.365806 c 0,-0.552501 0.08889,-0.58552 1.810455,-0.672455 1.348728,-0.06811 1.984052,-0.219917 2.491139,-0.595258 1.464448,-1.083964 1.403812,-0.262073 1.475135,-19.994642 l 0.06534,-18.076296 -4.196983,0.115965 c -4.925394,0.136092 -5.725168,0.36976 -7.3139879,2.136911 -1.0663607,1.186049 -1.8652719,3.069968 -1.8652719,4.398511 0,0.593843 -0.097142,0.701205 -0.6344514,0.701205 -0.6344513,0 -0.6344513,0 -0.4807279,-2.977215 0.084548,-1.637468 0.2173832,-3.82481 0.2951898,-4.860759 L 6.3695785,20.658228 H 23.579243 40.788907 l 0.137241,1.762026 c 0.07548,0.969114 0.20572,3.165574 0.289415,4.881024 0.152173,3.118996 0.152173,3.118996 -0.411313,3.037974 -0.468628,-0.06738 -0.610718,-0.306048 -0.844051,-1.417732 -0.39528,-1.883246 -0.687815,-2.513434 -1.672903,-3.603809 -1.544252,-1.709301 -2.77871,-2.063202 -7.609755,-2.181602 l -4.198408,-0.102896 0.06676,18.205637 c 0.06261,17.073342 0.09404,18.247252 0.505284,18.874745 0.679055,1.036117 1.800512,1.58174 3.61946,1.760973 1.395261,0.137486 1.653411,0.233912 1.653411,0.617596 0,0.435901 -0.366256,0.454673 -8.870886,0.454673 -8.870886,0 -8.870886,0 -8.870886,-0.581031 z m 42.774683,0.109846 c 0,-0.376743 0.231385,-0.504523 1.154431,-0.637516 1.459486,-0.210283 2.685389,-0.708336 3.431275,-1.394039 0.683304,-0.628168 1.477292,-2.24639 1.484906,-3.026374 0.0048,-0.492947 -0.111279,-0.546836 -1.178017,-0.546836 -1.818507,0 -5.281176,-0.675611 -7.058916,-1.377284 -4.433985,-1.75009 -7.95594,-5.351334 -9.230116,-9.437906 -1.721817,-5.522258 -0.04431,-11.511188 4.193774,-14.972311 2.711497,-2.214404 6.851695,-3.857926 10.651051,-4.228117 2.699695,-0.263045 2.706979,-0.266652 2.545626,-1.260947 -0.341194,-2.102538 -2.189959,-3.639332 -4.688317,-3.897186 -1.062637,-0.109673 -1.305697,-0.218914 -1.305697,-0.586833 0,-0.432595 0.387473,-0.452075 8.992405,-0.452075 8.830379,0 8.992405,0.0088 8.992405,0.486076 0,0.39004 -0.162026,0.486076 -0.820076,0.486076 -1.235102,0 -2.849126,0.656667 -3.742641,1.522696 -0.882376,0.855233 -1.708593,3.067118 -1.251257,3.349769 0.144722,0.08944 1.162526,0.231756 2.261785,0.316253 4.13376,0.317745 8.139011,1.869351 10.770577,4.172439 1.704435,1.491687 3.590186,4.373257 4.263671,6.515212 0.766506,2.4378 0.750489,6.39691 -0.03508,8.670467 -1.41959,4.10853 -5.034604,7.729726 -9.330896,9.346845 -1.856832,0.698911 -5.237782,1.346826 -7.027995,1.346826 -1.202663,0 -1.202663,0 -1.032175,0.789874 0.501198,2.322031 1.940131,3.655106 4.448976,4.121674 1.183189,0.220039 1.495106,0.370504 1.495106,0.721224 0,0.420894 -0.452165,0.443178 -8.992405,0.443178 -8.735645,0 -8.992405,-0.01347 -8.992405,-0.471185 z m 6.07595,-20.673119 c 0,-13.610127 0,-13.610127 -0.668355,-13.606535 -1.146454,0.0062 -3.659797,0.693754 -4.97854,1.362011 -2.725744,1.381241 -4.094131,3.0173 -5.057701,6.047055 -0.829056,2.606804 -0.96663,8.511326 -0.263132,11.293285 1.315688,5.202835 4.740871,7.928394 10.66393,8.485724 0.239762,0.02256 0.303798,-2.840219 0.303798,-13.58154 z m 10.058508,12.840102 c 5.213728,-1.722627 7.41547,-5.636884 7.427527,-13.204659 0.0095,-5.965504 -1.770376,-9.738732 -5.542194,-11.749088 -1.479088,-0.788347 -3.968341,-1.486739 -5.321057,-1.49289 -0.789873,-0.0036 -0.789873,-0.0036 -0.789873,13.624024 v 13.627613 l 1.397468,-0.166153 c 0.768608,-0.09139 2.041266,-0.378867 2.828129,-0.638847 z"
       id="path26734"
       sodipodi:nodetypes="sssscsssssscccsssssscssssssssssssssssssssssssssssssssssssscsssssssssscss"
       sodipodi:insensitive="true" />
  </g>
</svg>
