<?xml version="1.0" encoding="UTF-8" standalone="no"?>
<svg
   width="29.605471pt"
   height="22.519531pt"
   viewBox="0 0 29.605471 22.519532"
   version="1.1"
   id="svg5504"
   sodipodi:docname="SeasonalVariationsMuons_SamuelHaefs.pdf"
   xmlns:inkscape="http://www.inkscape.org/namespaces/inkscape"
   xmlns:sodipodi="http://sodipodi.sourceforge.net/DTD/sodipodi-0.dtd"
   xmlns="http://www.w3.org/2000/svg"
   xmlns:svg="http://www.w3.org/2000/svg">
  <sodipodi:namedview
     id="namedview5506"
     pagecolor="#ffffff"
     bordercolor="#000000"
     borderopacity="0.25"
     inkscape:showpageshadow="2"
     inkscape:pageopacity="0.0"
     inkscape:pagecheckerboard="0"
     inkscape:deskcolor="#d1d1d1"
     inkscape:document-units="pt"
     showgrid="false" />
  <defs
     id="defs5076">
    <clipPath
       id="clip-1-7">
      <path
         clip-rule="nonzero"
         d="M 14.945312,9.964844 H 45 V 32.640625 H 14.945312 Z m 0,0"
         id="path277-5" />
    </clipPath>
    <filter
       id="filter-remove-color-8"
       x="0"
       y="0"
       width="1"
       height="1">
      <feColorMatrix
         color-interpolation-filters="sRGB"
         values="0 0 0 0 1 0 0 0 0 1 0 0 0 0 1 0 0 0 1 0"
         id="feColorMatrix59-9" />
    </filter>
    <clipPath
       clipPathUnits="userSpaceOnUse"
       id="clipPath32340">
      <g
         id="g32344">
        <path
           clip-rule="nonzero"
           d="M 5.1826607,25.674699 H 458.72563 V 309.13954 H 5.1826607 Z m 0,0"
           id="path32342" />
      </g>
    </clipPath>
  </defs>
  <path
     fill-rule="nonzero"
     fill="#3a3d41"
     fill-opacity="1"
     d="M 5.1826607,309.13954 H 458.72563 V 25.674699 H 5.1826607 Z m 0,0"
     id="path5078"
     clip-path="url(#clipPath32340)"
     transform="translate(-20.127974,-35.639542)" />
  <g
     clip-path="url(#clip-1-7)"
     id="g5084"
     transform="translate(-14.945313,-9.9648431)"
     inkscape:export-filename="g5084.svg"
     inkscape:export-xdpi="96"
     inkscape:export-ydpi="96">
    <path
       fill-rule="nonzero"
       fill="#84b819"
       fill-opacity="1"
       d="m 44.550781,16.210938 v 10.933593 c 0,3.308594 -2.308593,5.339844 -5.339843,5.339844 h -3.996094 c -3.03125,0 -5.34375,-2.03125 -5.34375,-5.339844 v -7.839843 h -8.648438 v 7.777343 c 0,1.53125 0.8125,2.3125 2.28125,2.3125 h 1.652344 l -0.0625,3.089844 h -1.589844 c -3.09375,0 -5.34375,-2.058594 -5.34375,-5.402344 v -7.777343 h -3.214844 v -3.09375 h 3.214844 V 9.964844 h 3.0625 v 6.246094 h 11.710938 v 10.933593 c 0,1.558594 0.8125,2.277344 2.28125,2.277344 h 3.996094 c 1.46875,0 2.28125,-0.71875 2.28125,-2.277344 V 16.210938 Z m 0,0"
       id="path5082" />
  </g>
</svg>
